<svg width="24" height="24" viewBox="0 0 24 24" fill="none" xmlns="http://www.w3.org/2000/svg">
<mask id="mask0_49_5976" style="mask-type:alpha" maskUnits="userSpaceOnUse" x="0" y="0" width="24" height="24">
<rect width="24" height="24" fill="#D9D9D9"/>
</mask>
<g mask="url(#mask0_49_5976)">
<path d="M12 13.4L9.09999 16.3C8.91665 16.4833 8.68332 16.575 8.39999 16.575C8.11665 16.575 7.88332 16.4833 7.69999 16.3C7.51665 16.1167 7.42499 15.8833 7.42499 15.6C7.42499 15.3167 7.51665 15.0833 7.69999 14.9L10.6 12L7.69999 9.125C7.51665 8.94166 7.42499 8.70833 7.42499 8.425C7.42499 8.14166 7.51665 7.90833 7.69999 7.725C7.88332 7.54166 8.11665 7.45 8.39999 7.45C8.68332 7.45 8.91665 7.54166 9.09999 7.725L12 10.625L14.875 7.725C15.0583 7.54166 15.2917 7.45 15.575 7.45C15.8583 7.45 16.0917 7.54166 16.275 7.725C16.475 7.925 16.575 8.1625 16.575 8.4375C16.575 8.7125 16.475 8.94166 16.275 9.125L13.375 12L16.275 14.9C16.4583 15.0833 16.55 15.3167 16.55 15.6C16.55 15.8833 16.4583 16.1167 16.275 16.3C16.075 16.5 15.8375 16.6 15.5625 16.6C15.2875 16.6 15.0583 16.5 14.875 16.3L12 13.4Z" fill="#282329" fill-opacity="0.65"/>
</g>
</svg>
