<svg width="24" height="24" viewBox="0 0 24 24" fill="none" xmlns="http://www.w3.org/2000/svg">
<mask id="mask0_57_641" style="mask-type:alpha" maskUnits="userSpaceOnUse" x="0" y="0" width="24" height="24">
<rect width="24" height="24" fill="#D9D9D9"/>
</mask>
<g mask="url(#mask0_57_641)">
<path d="M7 20C6.16667 20 5.45833 19.7083 4.875 19.125C4.29167 18.5417 4 17.8333 4 17H2.725C2.44167 17 2.20417 16.9042 2.0125 16.7125C1.82083 16.5208 1.725 16.2833 1.725 16C1.725 15.7167 1.82083 15.4792 2.0125 15.2875C2.20417 15.0958 2.44167 15 2.725 15H4.775C5.05833 14.6833 5.39167 14.4375 5.775 14.2625C6.15833 14.0875 6.56667 14 7 14C7.43333 14 7.84167 14.0875 8.225 14.2625C8.60833 14.4375 8.94167 14.6833 9.225 15H13.4L15.5 6H5.75C5.46667 6 5.22917 5.90417 5.0375 5.7125C4.84583 5.52083 4.75 5.28333 4.75 5C4.75 4.71667 4.84583 4.47917 5.0375 4.2875C5.22917 4.09583 5.46667 4 5.75 4H16.75C17.0833 4 17.35 4.125 17.55 4.375C17.75 4.625 17.8083 4.90833 17.725 5.225L17.075 8H19C19.3167 8 19.6167 8.07083 19.9 8.2125C20.1833 8.35417 20.4167 8.55 20.6 8.8L22.475 11.275C22.6583 11.5083 22.775 11.7625 22.825 12.0375C22.875 12.3125 22.875 12.5917 22.825 12.875L22.15 16.2C22.1 16.4333 21.9833 16.625 21.8 16.775C21.6167 16.925 21.4083 17 21.175 17H20C20 17.8333 19.7083 18.5417 19.125 19.125C18.5417 19.7083 17.8333 20 17 20C16.1667 20 15.4583 19.7083 14.875 19.125C14.2917 18.5417 14 17.8333 14 17H10C10 17.8333 9.70833 18.5417 9.125 19.125C8.54167 19.7083 7.83333 20 7 20ZM15.925 13H20.75L20.85 12.475L19 10H16.625L15.925 13ZM13.45 14.825L13.6125 14.1C13.7208 13.6167 13.8583 13.025 14.025 12.325C14.075 12.1083 14.125 11.9083 14.175 11.725C14.225 11.5417 14.2667 11.3583 14.3 11.175L14.4625 10.45C14.5708 9.96667 14.7083 9.375 14.875 8.675C15.0417 7.975 15.1792 7.38333 15.2875 6.9L15.45 6.175L15.5 6L13.4 15L13.45 14.825ZM1.75 13.325C1.46667 13.325 1.22917 13.2292 1.0375 13.0375C0.845833 12.8458 0.75 12.6083 0.75 12.325C0.75 12.0417 0.845833 11.8042 1.0375 11.6125C1.22917 11.4208 1.46667 11.325 1.75 11.325H5.25C5.53333 11.325 5.77083 11.4208 5.9625 11.6125C6.15417 11.8042 6.25 12.0417 6.25 12.325C6.25 12.6083 6.15417 12.8458 5.9625 13.0375C5.77083 13.2292 5.53333 13.325 5.25 13.325H1.75ZM3.75 9.675C3.46667 9.675 3.22917 9.57917 3.0375 9.3875C2.84583 9.19583 2.75 8.95833 2.75 8.675C2.75 8.39167 2.84583 8.15417 3.0375 7.9625C3.22917 7.77083 3.46667 7.675 3.75 7.675H8.25C8.53333 7.675 8.77083 7.77083 8.9625 7.9625C9.15417 8.15417 9.25 8.39167 9.25 8.675C9.25 8.95833 9.15417 9.19583 8.9625 9.3875C8.77083 9.57917 8.53333 9.675 8.25 9.675H3.75ZM7 18C7.28333 18 7.52083 17.9042 7.7125 17.7125C7.90417 17.5208 8 17.2833 8 17C8 16.7167 7.90417 16.4792 7.7125 16.2875C7.52083 16.0958 7.28333 16 7 16C6.71667 16 6.47917 16.0958 6.2875 16.2875C6.09583 16.4792 6 16.7167 6 17C6 17.2833 6.09583 17.5208 6.2875 17.7125C6.47917 17.9042 6.71667 18 7 18ZM17 18C17.2833 18 17.5208 17.9042 17.7125 17.7125C17.9042 17.5208 18 17.2833 18 17C18 16.7167 17.9042 16.4792 17.7125 16.2875C17.5208 16.0958 17.2833 16 17 16C16.7167 16 16.4792 16.0958 16.2875 16.2875C16.0958 16.4792 16 16.7167 16 17C16 17.2833 16.0958 17.5208 16.2875 17.7125C16.4792 17.9042 16.7167 18 17 18Z" fill="#282329" fill-opacity="0.65"/>
</g>
</svg>
