<svg width="24" height="24" viewBox="0 0 24 24" fill="none" xmlns="http://www.w3.org/2000/svg">
<mask id="mask0_46_993" style="mask-type:alpha" maskUnits="userSpaceOnUse" x="0" y="0" width="24" height="24">
<rect width="24" height="24" fill="#D9D9D9"/>
</mask>
<g mask="url(#mask0_46_993)">
<path d="M20 9.425L15.525 13.875C14.9417 14.4583 14.2333 14.75 13.4 14.75C12.5667 14.75 11.8583 14.4583 11.275 13.875L10.1 12.7C9.91665 12.5167 9.68332 12.425 9.39999 12.425C9.11665 12.425 8.88332 12.5167 8.69999 12.7L4.09999 17.3C3.91665 17.4833 3.68332 17.575 3.39999 17.575C3.11665 17.575 2.88332 17.4833 2.69999 17.3C2.51665 17.1167 2.42499 16.8833 2.42499 16.6C2.42499 16.3167 2.51665 16.0833 2.69999 15.9L7.29999 11.3C7.88332 10.7167 8.59165 10.425 9.42499 10.425C10.2583 10.425 10.9667 10.7167 11.55 11.3L12.7 12.45C12.9 12.65 13.1375 12.75 13.4125 12.75C13.6875 12.75 13.925 12.65 14.125 12.45L18.575 8H17C16.7167 8 16.4792 7.90417 16.2875 7.7125C16.0958 7.52083 16 7.28333 16 7C16 6.71667 16.0958 6.47917 16.2875 6.2875C16.4792 6.09583 16.7167 6 17 6H21C21.2833 6 21.5208 6.09583 21.7125 6.2875C21.9042 6.47917 22 6.71667 22 7V11C22 11.2833 21.9042 11.5208 21.7125 11.7125C21.5208 11.9042 21.2833 12 21 12C20.7167 12 20.4792 11.9042 20.2875 11.7125C20.0958 11.5208 20 11.2833 20 11V9.425Z" fill="#282329" fill-opacity="0.65"/>
</g>
</svg>
