<svg width="24" height="24" viewBox="0 0 24 24" fill="none" xmlns="http://www.w3.org/2000/svg">
<mask id="mask0_46_1005" style="mask-type:alpha" maskUnits="userSpaceOnUse" x="0" y="0" width="24" height="24">
<rect width="24" height="24" fill="#D9D9D9"/>
</mask>
<g mask="url(#mask0_46_1005)">
<path d="M17.75 20.25C16.7 20.25 15.8125 19.8875 15.0875 19.1625C14.3625 18.4375 14 17.55 14 16.5C14 15.45 14.3625 14.5625 15.0875 13.8375C15.8125 13.1125 16.7 12.75 17.75 12.75C18.8 12.75 19.6875 13.1125 20.4125 13.8375C21.1375 14.5625 21.5 15.45 21.5 16.5C21.5 17.55 21.1375 18.4375 20.4125 19.1625C19.6875 19.8875 18.8 20.25 17.75 20.25ZM17.75 18.25C18.2333 18.25 18.6458 18.0792 18.9875 17.7375C19.3292 17.3958 19.5 16.9833 19.5 16.5C19.5 16.0167 19.3292 15.6042 18.9875 15.2625C18.6458 14.9208 18.2333 14.75 17.75 14.75C17.2667 14.75 16.8542 14.9208 16.5125 15.2625C16.1708 15.6042 16 16.0167 16 16.5C16 16.9833 16.1708 17.3958 16.5125 17.7375C16.8542 18.0792 17.2667 18.25 17.75 18.25ZM11 17.5H5C4.71667 17.5 4.47917 17.4042 4.2875 17.2125C4.09583 17.0208 4 16.7833 4 16.5C4 16.2167 4.09583 15.9792 4.2875 15.7875C4.47917 15.5958 4.71667 15.5 5 15.5H11C11.2833 15.5 11.5208 15.5958 11.7125 15.7875C11.9042 15.9792 12 16.2167 12 16.5C12 16.7833 11.9042 17.0208 11.7125 17.2125C11.5208 17.4042 11.2833 17.5 11 17.5ZM6.25 11.25C5.2 11.25 4.3125 10.8875 3.5875 10.1625C2.8625 9.4375 2.5 8.55 2.5 7.5C2.5 6.45 2.8625 5.5625 3.5875 4.8375C4.3125 4.1125 5.2 3.75 6.25 3.75C7.3 3.75 8.1875 4.1125 8.9125 4.8375C9.6375 5.5625 10 6.45 10 7.5C10 8.55 9.6375 9.4375 8.9125 10.1625C8.1875 10.8875 7.3 11.25 6.25 11.25ZM6.25 9.25C6.73333 9.25 7.14583 9.07917 7.4875 8.7375C7.82917 8.39583 8 7.98333 8 7.5C8 7.01667 7.82917 6.60417 7.4875 6.2625C7.14583 5.92083 6.73333 5.75 6.25 5.75C5.76667 5.75 5.35417 5.92083 5.0125 6.2625C4.67083 6.60417 4.5 7.01667 4.5 7.5C4.5 7.98333 4.67083 8.39583 5.0125 8.7375C5.35417 9.07917 5.76667 9.25 6.25 9.25ZM19 8.5H13C12.7167 8.5 12.4792 8.40417 12.2875 8.2125C12.0958 8.02083 12 7.78333 12 7.5C12 7.21667 12.0958 6.97917 12.2875 6.7875C12.4792 6.59583 12.7167 6.5 13 6.5H19C19.2833 6.5 19.5208 6.59583 19.7125 6.7875C19.9042 6.97917 20 7.21667 20 7.5C20 7.78333 19.9042 8.02083 19.7125 8.2125C19.5208 8.40417 19.2833 8.5 19 8.5Z" fill="#282329" fill-opacity="0.65"/>
</g>
</svg>
