<svg width="24" height="24" viewBox="0 0 24 24" fill="none" xmlns="http://www.w3.org/2000/svg">
<mask id="mask0_46_999" style="mask-type:alpha" maskUnits="userSpaceOnUse" x="0" y="0" width="24" height="24">
<rect width="24" height="24" fill="#D9D9D9"/>
</mask>
<g mask="url(#mask0_46_999)">
<path d="M14.5 23C14.0833 23 13.7291 22.8542 13.4375 22.5625C13.1458 22.2708 13 21.9167 13 21.5V14.5C13 14.0833 13.1458 13.7292 13.4375 13.4375C13.7291 13.1458 14.0833 13 14.5 13H21.5C21.9166 13 22.2708 13.1458 22.5625 13.4375C22.8541 13.7292 23 14.0833 23 14.5V21.5C23 21.9167 22.8541 22.2708 22.5625 22.5625C22.2708 22.8542 21.9166 23 21.5 23H14.5ZM11 17.425V22H10.575C10.125 22 9.77915 21.85 9.53748 21.55C9.29581 21.25 9.14165 20.8833 9.07498 20.45L8.84998 18.8C8.63331 18.7167 8.42915 18.6167 8.23748 18.5C8.04581 18.3833 7.85831 18.2583 7.67498 18.125L6.12498 18.775C5.70831 18.9583 5.29165 18.975 4.87498 18.825C4.45831 18.675 4.13331 18.4083 3.89998 18.025L2.72498 15.975C2.49165 15.5917 2.42498 15.1833 2.52498 14.75C2.62498 14.3167 2.84998 13.9583 3.19998 13.675L4.52498 12.675C4.50831 12.5583 4.49998 12.4458 4.49998 12.3375V11.6625C4.49998 11.5542 4.50831 11.4417 4.52498 11.325L3.19998 10.325C2.84998 10.0417 2.62498 9.68333 2.52498 9.25C2.42498 8.81667 2.49165 8.40833 2.72498 8.025L3.89998 5.975C4.13331 5.59167 4.45831 5.325 4.87498 5.175C5.29165 5.025 5.70831 5.04167 6.12498 5.225L7.67498 5.875C7.85831 5.74167 8.04998 5.61667 8.24998 5.5C8.44998 5.38333 8.64998 5.28333 8.84998 5.2L9.07498 3.55C9.14165 3.11667 9.33748 2.75 9.66248 2.45C9.98748 2.15 10.375 2 10.825 2H13.175C13.625 2 14.0125 2.15 14.3375 2.45C14.6625 2.75 14.8583 3.11667 14.925 3.55L15.15 5.2C15.3666 5.28333 15.5708 5.38333 15.7625 5.5C15.9541 5.61667 16.1416 5.74167 16.325 5.875L17.875 5.225C18.2916 5.04167 18.7083 5.025 19.125 5.175C19.5416 5.325 19.8666 5.59167 20.1 5.975L21.275 8.025C21.5083 8.40833 21.575 8.82083 21.475 9.2625C21.375 9.70417 21.15 10.0583 20.8 10.325L20.2 10.775C19.9666 10.9417 19.7208 11.0083 19.4625 10.975C19.2041 10.9417 18.9833 10.8167 18.8 10.6C18.6166 10.3833 18.5416 10.1417 18.575 9.875C18.6083 9.60833 18.7333 9.38333 18.95 9.2L19.425 8.85L18.45 7.15L15.975 8.2C15.6083 7.81667 15.2041 7.49583 14.7625 7.2375C14.3208 6.97917 13.8416 6.78333 13.325 6.65L13 4H11.025L10.675 6.65C10.1583 6.78333 9.67915 6.97917 9.23748 7.2375C8.79581 7.49583 8.39165 7.80833 8.02498 8.175L5.54998 7.15L4.57498 8.85L6.72498 10.45C6.64165 10.7 6.58331 10.95 6.54998 11.2C6.51665 11.45 6.49998 11.7167 6.49998 12C6.49998 12.2667 6.51665 12.525 6.54998 12.775C6.58331 13.025 6.64165 13.275 6.72498 13.525L4.57498 15.15L5.54998 16.85L8.02498 15.8C8.42498 16.2167 8.87915 16.5625 9.38748 16.8375C9.89581 17.1125 10.4333 17.3083 11 17.425ZM12.05 8.5C11.0833 8.5 10.2583 8.8375 9.57498 9.5125C8.89165 10.1875 8.54998 11.0167 8.54998 12C8.54998 12.35 8.59998 12.6917 8.69998 13.025C8.79998 13.3583 8.94998 13.675 9.14998 13.975C9.33331 14.225 9.57081 14.3833 9.86248 14.45C10.1541 14.5167 10.4166 14.4583 10.65 14.275C10.8833 14.1083 11.0208 13.8875 11.0625 13.6125C11.1041 13.3375 11.0333 13.1 10.85 12.9C10.75 12.7667 10.675 12.6292 10.625 12.4875C10.575 12.3458 10.55 12.1833 10.55 12C10.55 11.5833 10.6958 11.2292 10.9875 10.9375C11.2791 10.6458 11.6333 10.5 12.05 10.5C12.2166 10.5 12.3791 10.5292 12.5375 10.5875C12.6958 10.6458 12.8416 10.725 12.975 10.825C13.175 10.975 13.4 11.0292 13.65 10.9875C13.9 10.9458 14.1083 10.8083 14.275 10.575C14.4416 10.3417 14.4958 10.0833 14.4375 9.8C14.3791 9.51667 14.2333 9.28333 14 9.1C13.7666 8.9 13.4833 8.75 13.15 8.65C12.8166 8.55 12.45 8.5 12.05 8.5ZM18 19C17.5833 19 17.175 19.0542 16.775 19.1625C16.375 19.2708 16 19.4417 15.65 19.675C15.4333 19.8083 15.2708 19.95 15.1625 20.1C15.0541 20.25 15 20.4083 15 20.575C15 20.6917 15.0416 20.7917 15.125 20.875C15.2083 20.9583 15.3083 21 15.425 21H20.675C20.7583 21 20.8333 20.9583 20.9 20.875C20.9666 20.7917 21 20.6917 21 20.575C21 20.4083 20.9458 20.25 20.8375 20.1C20.7291 19.95 20.5666 19.8083 20.35 19.675C20 19.4417 19.625 19.2708 19.225 19.1625C18.825 19.0542 18.4166 19 18 19ZM18 18C18.4166 18 18.7708 17.8542 19.0625 17.5625C19.3541 17.2708 19.5 16.9167 19.5 16.5C19.5 16.0833 19.3541 15.7292 19.0625 15.4375C18.7708 15.1458 18.4166 15 18 15C17.5833 15 17.2291 15.1458 16.9375 15.4375C16.6458 15.7292 16.5 16.0833 16.5 16.5C16.5 16.9167 16.6458 17.2708 16.9375 17.5625C17.2291 17.8542 17.5833 18 18 18Z" fill="#282329" fill-opacity="0.65"/>
</g>
</svg>
