<svg width="24" height="24" viewBox="0 0 24 24" fill="none" xmlns="http://www.w3.org/2000/svg">
<mask id="mask0_49_1845" style="mask-type:alpha" maskUnits="userSpaceOnUse" x="0" y="0" width="24" height="24">
<rect width="24" height="24" fill="#D9D9D9"/>
</mask>
<g mask="url(#mask0_49_1845)">
<path d="M15.825 13L13.825 11H15.55L18.3 5.99999H8.825L6.825 3.99999H19.95C20.3333 3.99999 20.6292 4.16249 20.8375 4.48749C21.0458 4.81249 21.05 5.16666 20.85 5.54999L17.3 11.95C17.1167 12.2833 16.8792 12.5417 16.5875 12.725C16.2958 12.9083 16.0417 13 15.825 13ZM7 22C6.45 22 5.97917 21.8042 5.5875 21.4125C5.19583 21.0208 5 20.55 5 20C5 19.45 5.19583 18.9792 5.5875 18.5875C5.97917 18.1958 6.45 18 7 18C7.55 18 8.02083 18.1958 8.4125 18.5875C8.80417 18.9792 9 19.45 9 20C9 20.55 8.80417 21.0208 8.4125 21.4125C8.02083 21.8042 7.55 22 7 22ZM19.8 22.6L14.15 17H7.6C6.86667 17 6.30833 16.6875 5.925 16.0625C5.54167 15.4375 5.51667 14.7833 5.85 14.1L6.9 11.95L5.1 7.89999L1.4 4.19999C1.21667 4.01666 1.125 3.78333 1.125 3.49999C1.125 3.21666 1.21667 2.98333 1.4 2.79999C1.58333 2.61666 1.81667 2.52499 2.1 2.52499C2.38333 2.52499 2.61667 2.61666 2.8 2.79999L21.2 21.2C21.3833 21.3833 21.4792 21.6125 21.4875 21.8875C21.4958 22.1625 21.4 22.4 21.2 22.6C21.0167 22.7833 20.7833 22.875 20.5 22.875C20.2167 22.875 19.9833 22.7833 19.8 22.6ZM12.15 15L10.15 13H8.6L7.6 15H12.15ZM17 22C16.45 22 15.9792 21.8042 15.5875 21.4125C15.1958 21.0208 15 20.55 15 20C15 19.45 15.1958 18.9792 15.5875 18.5875C15.9792 18.1958 16.45 18 17 18C17.55 18 18.0208 18.1958 18.4125 18.5875C18.8042 18.9792 19 19.45 19 20C19 20.55 18.8042 21.0208 18.4125 21.4125C18.0208 21.8042 17.55 22 17 22Z" fill="#282329" fill-opacity="0.65"/>
</g>
</svg>
