<svg width="24" height="24" viewBox="0 0 24 24" fill="none" xmlns="http://www.w3.org/2000/svg">
<mask id="mask0_3385_145040" style="mask-type:alpha" maskUnits="userSpaceOnUse" x="0" y="0" width="24" height="24">
<rect width="24" height="24" fill="#D9D9D9"/>
</mask>
<g mask="url(#mask0_3385_145040)">
<path d="M20.7111 20.6896H3.28884C2.38804 20.6896 1.65515 19.947 1.65515 19.0342V14.6203C1.65515 14.3153 1.89869 14.0685 2.19972 14.0685C3.10052 14.0685 3.83341 13.3258 3.83341 12.413C3.83341 11.5002 3.10052 10.7575 2.19972 10.7575C1.89945 10.7575 1.65515 10.5107 1.65515 10.2057V5.79339C1.65515 4.88058 2.38804 4.13791 3.28884 4.13791H20.7111C21.6119 4.13791 22.3448 4.88058 22.3448 5.79339C22.3448 6.09843 22.1013 6.34521 21.8002 6.34521C21.4992 6.34521 21.2557 6.09843 21.2557 5.79339C21.2557 5.48835 21.0114 5.24156 20.7111 5.24156H3.28884C2.98858 5.24156 2.74428 5.48912 2.74428 5.79339V9.71059C3.98543 9.96657 4.92178 11.0817 4.92178 12.4138C4.92178 13.7458 3.98468 14.8602 2.74428 15.117V19.0342C2.74428 19.3384 2.98858 19.586 3.28884 19.586H20.7111C21.0114 19.586 21.2557 19.3384 21.2557 19.0342V16.9112C21.2557 16.6061 21.4992 16.3593 21.8002 16.3593C22.1013 16.3593 22.3448 16.6061 22.3448 16.9112V19.0342C22.3448 19.947 21.6119 20.6896 20.7111 20.6896Z" fill="black"/>
<path d="M21.8003 10.7583C22.1013 10.7583 22.3449 10.5116 22.3449 10.2065V7.69801C22.3449 7.39297 22.1013 7.14618 21.8003 7.14618H8.8639C8.56288 7.14618 8.31934 7.39297 8.31934 7.69801V17.1289C8.31934 17.4339 8.56288 17.6807 8.8639 17.6807H21.8003C22.1013 17.6807 22.3449 17.4339 22.3449 17.1289V14.6204C22.3449 14.3153 22.1013 14.0685 21.8003 14.0685C20.9003 14.0685 20.1666 13.3259 20.1666 12.4131C20.1666 11.5002 20.8995 10.7576 21.8003 10.7576V10.7583ZM10.5989 10.5047C10.577 9.68075 11.2199 8.98943 12.036 8.96721C12.8385 8.94881 13.5313 9.59644 13.5532 10.4203C13.5789 11.2481 12.9322 11.9394 12.1192 11.9616H12.0753C11.6979 11.9616 11.3386 11.8183 11.0588 11.5531C10.7721 11.2772 10.6088 10.9055 10.5982 10.5047H10.5989ZM11.9021 15.3967C11.7675 15.3967 11.6336 15.3492 11.5285 15.2458C11.3107 15.0396 11.3001 14.6901 11.5065 14.4663L16.0438 9.60411C16.2511 9.37954 16.5952 9.37264 16.813 9.58188C17.0346 9.78805 17.0414 10.1375 16.835 10.3613L12.2977 15.2235C12.1925 15.3416 12.0473 15.3967 11.9021 15.3967ZM17.7418 14.3782C17.7418 14.7537 17.6004 15.1178 17.3387 15.3937C17.0702 15.6842 16.7034 15.8497 16.3078 15.8604C16.2934 15.8604 16.279 15.8643 16.2639 15.8643C15.8865 15.8643 15.5272 15.7171 15.2512 15.4527C14.9607 15.1768 14.7974 14.8051 14.7868 14.4081C14.7649 13.5803 15.4077 12.889 16.2238 12.8668C17.0407 12.8484 17.7191 13.496 17.7411 14.323V14.3782H17.7418ZM12.0867 10.858C11.9815 10.8618 11.8832 10.8212 11.8068 10.7514C11.7342 10.6779 11.6903 10.5782 11.6873 10.4755C11.6798 10.2586 11.8507 10.0747 12.0647 10.0709C12.0685 10.067 12.0723 10.067 12.0753 10.067C12.2856 10.067 12.4603 10.2402 12.4633 10.4533C12.4709 10.6702 12.2999 10.8503 12.0859 10.858H12.0867ZM16.2647 13.9697H16.2541C16.04 13.9773 15.8691 14.1574 15.8767 14.3743C15.8805 14.4809 15.9236 14.5767 16 14.6502C16.0726 14.7238 16.1709 14.7606 16.276 14.7568C16.3812 14.7568 16.4795 14.7123 16.5483 14.6357C16.6209 14.5583 16.6572 14.4594 16.6572 14.3521C16.6497 14.139 16.4757 13.9697 16.2654 13.9697H16.2647Z" fill="#3AA207"/>
<path d="M6.33766 20.6896C6.03739 20.6896 5.79309 20.4428 5.79309 20.1378V17.9313C5.79309 17.6262 6.03663 17.3794 6.33766 17.3794C6.63868 17.3794 6.88222 17.6262 6.88222 17.9313V20.1378C6.88222 20.4428 6.63868 20.6896 6.33766 20.6896ZM6.33766 16.2758C6.03739 16.2758 5.79309 16.029 5.79309 15.724V13.5174C5.79309 13.2124 6.03663 12.9656 6.33766 12.9656C6.63868 12.9656 6.88222 13.2124 6.88222 13.5174V15.724C6.88222 16.029 6.63868 16.2758 6.33766 16.2758ZM6.33766 11.8619C6.03739 11.8619 5.79309 11.6152 5.79309 11.3101V9.10358C5.79309 8.79854 6.03663 8.55175 6.33766 8.55175C6.63868 8.55175 6.88222 8.79854 6.88222 9.10358V11.3101C6.88222 11.6152 6.63868 11.8619 6.33766 11.8619ZM6.33766 7.4481C6.03739 7.4481 5.79309 7.20131 5.79309 6.89627V4.68974C5.79309 4.3847 6.03663 4.13791 6.33766 4.13791C6.63868 4.13791 6.88222 4.3847 6.88222 4.68974V6.89627C6.88222 7.20131 6.63868 7.4481 6.33766 7.4481Z" fill="black"/>
</g>
</svg>
