<svg width="22" height="22" viewBox="0 0 22 22" fill="none" xmlns="http://www.w3.org/2000/svg">
<g clip-path="url(#clip0_4283_13802)">
<path d="M17.5195 12.7731V20.0206C17.5195 20.7194 16.9406 21.2857 16.2261 21.2857H2.0076C1.29317 21.2857 0.714233 20.7194 0.714233 20.0206V1.97944C0.714233 1.2806 1.29317 0.714294 2.0076 0.714294H6.2834C6.56517 0.714294 6.81614 0.91235 6.85156 1.18571C6.89467 1.51631 6.63215 1.79871 6.30188 1.79871H2.0076C1.90521 1.79871 1.82283 1.87928 1.82283 1.97944V20.0206C1.82283 20.1207 1.90521 20.2013 2.0076 20.2013H16.2269C16.3293 20.2013 16.4117 20.1207 16.4117 20.0206V12.7731C16.4117 12.4779 16.6534 12.2369 16.9552 12.2309C17.2655 12.2249 17.5203 12.4696 17.5203 12.7731H17.5195Z" fill="black"/>
<path d="M17.5195 6.19584V1.97944C17.5195 1.2806 16.9406 0.714294 16.2261 0.714294H14.2176C13.9358 0.714294 13.6848 0.91235 13.6494 1.18571C13.6063 1.51631 13.8688 1.79871 14.1991 1.79871H16.2261C16.3285 1.79871 16.4109 1.87928 16.4109 1.97944V6.19584C16.4109 6.49857 16.6642 6.74257 16.9729 6.73805C17.2755 6.73353 17.5187 6.49255 17.5187 6.19584H17.5195Z" fill="black"/>
<path d="M15.0899 19.449H3.14549C2.83908 19.449 2.59119 19.2065 2.59119 18.9068V1.2565C2.59119 0.956781 2.83908 0.714294 3.14549 0.714294C3.45189 0.714294 3.69978 0.956781 3.69978 1.2565V18.3653H15.0899C15.3963 18.3653 15.6442 18.6078 15.6442 18.9075C15.6442 19.2073 15.3963 19.4498 15.0899 19.4498V19.449Z" fill="black"/>
<path d="M15.0898 8.75927C14.7834 8.75927 14.5355 8.51678 14.5355 8.21706V1.2565C14.5355 0.956781 14.7834 0.714294 15.0898 0.714294C15.3962 0.714294 15.6441 0.956781 15.6441 1.2565V8.21706C15.6441 8.51603 15.3962 8.75927 15.0898 8.75927Z" fill="black"/>
<path d="M11.9326 0.714294H6.30186C5.99573 0.714294 5.74756 0.957048 5.74756 1.2565V4.04359C5.74756 4.34304 5.99573 4.58579 6.30186 4.58579H11.9326C12.2387 4.58579 12.4869 4.34304 12.4869 4.04359V1.2565C12.4869 0.957048 12.2387 0.714294 11.9326 0.714294Z" fill="#FF6634"/>
<path d="M5.78998 8.0853C5.626 8.0853 5.47049 8.01451 5.36579 7.89176L4.68831 7.10255C4.49122 6.87286 4.52202 6.53097 4.75683 6.33894C4.99086 6.14616 5.34115 6.17553 5.53746 6.40521L5.78998 6.69966L6.52904 5.83891C6.72613 5.60998 7.07564 5.57985 7.30968 5.77264C7.54449 5.96467 7.57451 6.30731 7.3782 6.53624L6.21494 7.89176C6.10947 8.01451 5.95396 8.0853 5.79075 8.0853H5.78998Z" fill="black"/>
<path d="M13.1213 6.59799H9.03489C8.72849 6.59799 8.48059 6.35551 8.48059 6.05579C8.48059 5.75607 8.72849 5.51358 9.03489 5.51358H13.1213C13.4277 5.51358 13.6756 5.75607 13.6756 6.05579C13.6756 6.35551 13.4277 6.59799 13.1213 6.59799Z" fill="black"/>
<path d="M13.1213 8.21707H9.03489C8.72849 8.21707 8.48059 7.97458 8.48059 7.67487C8.48059 7.37515 8.72849 7.13266 9.03489 7.13266H13.1213C13.4277 7.13266 13.6756 7.37515 13.6756 7.67487C13.6756 7.97458 13.4277 8.21707 13.1213 8.21707Z" fill="black"/>
<path d="M5.78998 12.502C5.626 12.502 5.47049 12.4312 5.36579 12.3085L4.68831 11.5193C4.49122 11.2896 4.52202 10.9477 4.75683 10.7557C4.99086 10.5629 5.34115 10.593 5.53746 10.8219L5.78998 11.1164L6.52904 10.2556C6.72613 10.0267 7.07564 9.99657 7.30968 10.1894C7.54449 10.3814 7.57451 10.724 7.3782 10.953L6.21494 12.3085C6.10947 12.4312 5.95396 12.502 5.79075 12.502H5.78998Z" fill="black"/>
<path d="M12.587 11.0147H9.03489C8.72849 11.0147 8.48059 10.7722 8.48059 10.4725C8.48059 10.1728 8.72849 9.9303 9.03489 9.9303H12.587C12.8934 9.9303 13.1413 10.1728 13.1413 10.4725C13.1413 10.7722 12.8934 11.0147 12.587 11.0147Z" fill="black"/>
<path d="M11.0781 12.6338H9.03489C8.72849 12.6338 8.48059 12.3913 8.48059 12.0916C8.48059 11.7919 8.72849 11.5494 9.03489 11.5494H11.0781C11.3845 11.5494 11.6324 11.7919 11.6324 12.0916C11.6324 12.3913 11.3845 12.6338 11.0781 12.6338Z" fill="black"/>
<path d="M5.78992 16.9179C5.62594 16.9179 5.47043 16.8472 5.36573 16.7244L4.68825 15.936C4.49117 15.7063 4.52196 15.3644 4.756 15.1723C4.99081 14.9796 5.34032 15.0089 5.53664 15.2386L5.78992 15.5331L6.52899 14.6723C6.7253 14.4426 7.07559 14.4133 7.30963 14.606C7.54366 14.7981 7.57446 15.1407 7.37738 15.3697L6.21412 16.7244C6.10865 16.8472 5.9539 16.9179 5.78992 16.9179Z" fill="black"/>
<path d="M10.8556 15.4314H9.03416C8.72775 15.4314 8.47986 15.1889 8.47986 14.8892C8.47986 14.5895 8.72775 14.347 9.03416 14.347H10.8556C11.1621 14.347 11.4099 14.5895 11.4099 14.8892C11.4099 15.1889 11.1621 15.4314 10.8556 15.4314Z" fill="black"/>
<path d="M10.8556 17.0497H9.03416C8.72775 17.0497 8.47986 16.8073 8.47986 16.5075C8.47986 16.2078 8.72775 15.9653 9.03416 15.9653H10.8556C11.1621 15.9653 11.4099 16.2078 11.4099 16.5075C11.4099 16.8073 11.1621 17.0497 10.8556 17.0497Z" fill="black"/>
<path d="M20.9869 4.48433C21.3318 4.75814 21.3845 5.25388 21.1046 5.59128L14.3494 13.7338L13.0994 12.7416L19.8546 4.59903C20.1345 4.26164 20.6413 4.21006 20.9863 4.48386L20.9869 4.48433Z" fill="black"/>
<path d="M13.1013 12.7422L12.4685 14.2491C12.3399 14.5541 12.6956 14.8365 12.9743 14.6505L14.3508 13.734L13.1013 12.7422Z" fill="black"/>
<path d="M15.6441 15.396C15.6441 15.0966 15.396 14.8538 15.0898 14.8538C14.7837 14.8538 14.5355 15.0966 14.5355 15.396V18.9068C14.5355 19.2063 14.7837 19.449 15.0898 19.449C15.396 19.449 15.6441 19.2063 15.6441 18.9068V15.396Z" fill="black"/>
</g>
<defs>
<clipPath id="clip0_4283_13802">
<rect width="20.5714" height="20.5714" fill="white" transform="translate(0.714233 0.714294)"/>
</clipPath>
</defs>
</svg>
