<svg width="143" height="20" viewBox="0 0 143 20" fill="none" xmlns="http://www.w3.org/2000/svg">
<path d="M12.804 16.172L13 16.256L12.524 19H0.0640001V18.692C1.184 17.768 1.408 17.46 1.408 16.48V4.72C1.408 3.74 1.184 3.432 0.0640001 2.508V2.2H6.728V2.508C5.608 3.432 5.384 3.74 5.384 4.72V18.104H6.784C7.904 18.104 8.94 17.74 12.804 16.172ZM17.1368 4.412C15.8768 4.412 14.9248 3.544 14.9248 2.396C14.9248 1.248 15.8768 0.379999 17.1368 0.379999C18.3968 0.379999 19.3488 1.248 19.3488 2.396C19.3488 3.544 18.3968 4.412 17.1368 4.412ZM19.1248 16.676C19.1248 17.544 19.3208 17.852 20.3568 18.692V19H14.0848V18.692C15.1208 17.852 15.3168 17.544 15.3168 16.676V9.256C15.3168 8.304 15.1768 8.052 14.0288 6.932V6.624H19.1248V16.676ZM26.7244 16.676C26.7244 17.544 26.9204 17.852 27.9564 18.692V19H21.6844V18.692C22.7204 17.852 22.9164 17.544 22.9164 16.676V2.844C22.9164 1.836 22.7484 1.528 21.5444 0.352V0.0439987H26.7244V16.676ZM35.7806 6.344C38.4686 6.344 40.0926 7.38 40.0926 9.48V19H36.3406L36.3126 17.628C35.6686 18.552 34.4646 19.28 32.8686 19.28C30.7126 19.28 29.3686 17.936 29.3686 15.92C29.3686 12.98 32.0006 12.364 36.3126 11.44V8.864C36.3126 7.744 35.8926 7.212 34.8566 7.212C33.9606 7.212 33.0926 7.66 30.1806 9.62L29.9566 9.508L30.1246 7.352C31.6646 6.848 33.9886 6.344 35.7806 6.344ZM34.6886 17.6C35.3606 17.6 35.9206 17.404 36.3126 17.068V12.308C33.7646 12.84 33.1206 13.316 33.1206 15.22C33.1206 16.984 33.5966 17.6 34.6886 17.6ZM51.5396 8.752L51.2876 8.836C48.9916 7.52 48.2636 7.184 47.4516 7.184C46.3316 7.184 45.7716 7.716 45.7716 8.556C45.7716 9.508 46.5276 10.068 48.5156 11.104C50.6436 12.196 51.8756 13.008 51.8756 14.996C51.8756 17.488 50.0556 19.28 46.8636 19.28C45.5756 19.28 44.1756 19.084 43.0556 18.776L42.5236 16.2L42.7476 16.144C45.1556 17.992 45.9676 18.384 47.0036 18.384C48.0676 18.384 48.7676 17.768 48.7676 16.816C48.7676 15.612 47.8436 15.136 45.9956 14.184C43.9516 13.12 42.6916 12.196 42.6916 10.264C42.6916 8.052 44.2876 6.344 47.6476 6.344C48.7956 6.344 50.3636 6.484 51.3716 6.652L51.5396 8.752ZM80.2357 2.508C79.1157 3.432 78.8917 3.74 78.8917 4.72V16.48C78.8917 17.46 79.1157 17.768 80.2357 18.692V19H73.5717V18.692C74.6917 17.768 74.9157 17.46 74.9157 16.48V5.756L69.5397 19H68.6997L62.8197 6.456V14.996C62.8197 16.48 62.9877 17.012 64.5837 18.692V19H60.0197V18.692C61.6157 17.012 61.7837 16.48 61.7837 14.996V4.58L60.6077 2.368V2.2H65.2837L70.6597 13.652L75.2797 2.2H80.2357V2.508ZM88.1986 6.344C90.8866 6.344 92.5106 7.38 92.5106 9.48V19H88.7586L88.7306 17.628C88.0866 18.552 86.8826 19.28 85.2866 19.28C83.1306 19.28 81.7866 17.936 81.7866 15.92C81.7866 12.98 84.4186 12.364 88.7306 11.44V8.864C88.7306 7.744 88.3106 7.212 87.2746 7.212C86.3786 7.212 85.5106 7.66 82.5986 9.62L82.3746 9.508L82.5426 7.352C84.0826 6.848 86.4066 6.344 88.1986 6.344ZM87.1066 17.6C87.7786 17.6 88.3386 17.404 88.7306 17.068V12.308C86.1826 12.84 85.5386 13.316 85.5386 15.22C85.5386 16.984 86.0146 17.6 87.1066 17.6ZM97.9376 4.412C96.6776 4.412 95.7256 3.544 95.7256 2.396C95.7256 1.248 96.6776 0.379999 97.9376 0.379999C99.1976 0.379999 100.15 1.248 100.15 2.396C100.15 3.544 99.1976 4.412 97.9376 4.412ZM99.9256 16.676C99.9256 17.544 100.122 17.852 101.158 18.692V19H94.8856V18.692C95.9216 17.852 96.1176 17.544 96.1176 16.676V9.256C96.1176 8.304 95.9776 8.052 94.8296 6.932V6.624H99.9256V16.676ZM111.641 8.752L111.389 8.836C109.093 7.52 108.365 7.184 107.553 7.184C106.433 7.184 105.873 7.716 105.873 8.556C105.873 9.508 106.629 10.068 108.617 11.104C110.745 12.196 111.977 13.008 111.977 14.996C111.977 17.488 110.157 19.28 106.965 19.28C105.677 19.28 104.277 19.084 103.157 18.776L102.625 16.2L102.849 16.144C105.257 17.992 106.069 18.384 107.105 18.384C108.169 18.384 108.869 17.768 108.869 16.816C108.869 15.612 107.945 15.136 106.097 14.184C104.053 13.12 102.793 12.196 102.793 10.264C102.793 8.052 104.389 6.344 107.749 6.344C108.897 6.344 110.465 6.484 111.473 6.652L111.641 8.752ZM120.031 19.28C115.887 19.28 113.479 16.536 113.479 12.868C113.479 9.172 116.055 6.344 120.115 6.344C124.147 6.344 126.667 9.088 126.667 12.756C126.667 16.452 124.259 19.28 120.031 19.28ZM120.087 18.384C122.131 18.384 122.383 16.704 122.383 12.84C122.383 8.892 122.103 7.212 120.059 7.212C118.043 7.212 117.763 8.892 117.763 12.784C117.763 16.732 118.043 18.384 120.087 18.384ZM140.902 16.676C140.902 17.544 141.098 17.852 142.134 18.692V19H135.862V18.692C136.898 17.852 137.094 17.544 137.094 16.676V10.124C137.094 8.948 136.646 8.108 135.246 8.108C134.322 8.108 133.706 8.472 133.23 8.864V16.676C133.23 17.544 133.398 17.852 134.322 18.692V19H128.19V18.692C129.226 17.852 129.422 17.544 129.422 16.676V9.256C129.422 8.304 129.282 8.052 128.134 6.932V6.624H133.118L133.202 8.36C133.986 7.24 135.218 6.344 137.038 6.344C139.502 6.344 140.902 7.744 140.902 10.208V16.676Z" fill="white"/>
</svg>
