<svg width="149" height="47" viewBox="0 0 149 47" fill="none" xmlns="http://www.w3.org/2000/svg">
<path d="M13.4396 10.2275C16.8887 10.2275 19.8247 11.4075 22.1932 13.7202C24.5617 16.033 25.7442 18.9084 25.7442 22.3031C25.7442 25.6977 24.5617 28.5732 22.1932 30.8859C19.8247 33.1987 16.8887 34.3786 13.4396 34.3786H7.10548V46.9153H0V11.4583C0 10.7794 0.553012 10.2275 1.23336 10.2275H13.4396ZM13.4396 27.7527C16.4776 27.7527 18.6933 25.3891 18.6933 22.3067C18.6933 19.2243 16.4776 16.8607 13.4396 16.8607H7.10548V27.7527H13.4396Z" fill="#338BFF"/>
<path d="M45.4672 46.919C40.2681 46.919 35.8368 45.1219 32.1803 41.5239C28.5749 37.8751 26.7739 33.4566 26.7739 28.2139C26.7739 22.9712 28.5749 18.5527 32.1803 14.9548C35.8368 11.306 40.2645 9.50879 45.4672 9.50879C50.6699 9.50879 55.0976 11.306 58.754 14.9548C62.4105 18.5527 64.2114 22.9712 64.2114 28.2139C64.2114 33.4566 62.4105 37.8751 58.754 41.5239C55.0976 45.1219 50.6699 46.919 45.4672 46.919ZM45.4672 39.9808C48.7634 39.9808 51.543 38.9025 53.7587 36.6915C55.9744 34.4804 57.1059 31.6558 57.1059 28.2139C57.1059 24.772 55.9744 21.9438 53.7587 19.7363C51.543 17.5253 48.7634 16.3961 45.4672 16.3961C42.1709 16.3961 39.3913 17.5253 37.1756 19.7363C34.96 21.9474 33.8285 24.772 33.8285 28.2139C33.8285 31.6558 34.96 34.484 37.1756 36.6915C39.3913 38.9025 42.1709 39.9808 45.4672 39.9808Z" fill="#338BFF"/>
<path d="M64.5422 38.0268L70.6181 34.4796C72.0079 38.1285 74.7875 39.9765 78.9096 39.9765C83.0317 39.9765 84.6762 38.3826 84.6762 36.1752C84.6762 34.8899 84.1086 33.9133 82.9772 33.2452C81.8457 32.5264 79.8374 31.753 76.9013 30.9325C73.656 29.9559 71.7023 29.1862 69.4356 27.5923C67.22 25.9476 66.0375 23.4824 66.0375 20.193C66.0375 16.9037 67.169 14.3332 69.4866 12.4343C71.8041 10.481 74.6347 9.50439 77.88 9.50439C83.6975 9.50439 88.2817 12.4852 90.7521 17.5717L84.7781 21.0136C83.3373 17.9311 81.0198 16.3881 77.8763 16.3881C74.9403 16.3881 73.1394 17.8767 73.1394 19.9861C73.1394 21.1152 73.6014 22.041 74.5292 22.7599C75.5079 23.4279 77.3088 24.1976 79.9865 25.0218L82.4569 25.8423C83.0245 25.9948 83.7958 26.3034 84.7744 26.7173C85.7531 27.0767 86.5244 27.4362 87.0411 27.7956C88.1216 28.4637 89.7697 29.7489 90.4392 30.9797C91.2105 32.2141 91.778 34.0113 91.778 36.0662C91.778 39.4064 90.541 42.0278 88.1216 43.9811C85.7022 45.9344 82.5588 46.911 78.6986 46.911C71.5422 46.911 66.5469 43.52 64.5386 38.0195L64.5422 38.0268Z" fill="#338BFF"/>
<path d="M138.449 16.1167H120.658L117.573 10.9067H138.449V16.1167Z" fill="#338BFF"/>
<path d="M103.133 46.9191C104.811 46.9191 106.171 45.5619 106.171 43.8876C106.171 42.2132 104.811 40.856 103.133 40.856C101.455 40.856 100.095 42.2132 100.095 43.8876C100.095 45.5619 101.455 46.9191 103.133 46.9191Z" fill="#FF6634"/>
<path d="M145.93 46.9191C147.608 46.9191 148.968 45.5619 148.968 43.8876C148.968 42.2132 147.608 40.856 145.93 40.856C144.252 40.856 142.892 42.2132 142.892 43.8876C142.892 45.5619 144.252 46.9191 145.93 46.9191Z" fill="#FF6634"/>
<path d="M140.705 38.4559L134.782 27.7128H114.353C113.913 27.7128 113.509 27.4804 113.287 27.1028L100.495 5.20999H90.3118L87.2666 0H102.784C103.224 0 103.628 0.232362 103.85 0.60995L116.642 22.5028H137.136C137.583 22.5028 137.998 22.746 138.216 23.1381L146.704 38.4559H140.705Z" fill="#FF6634"/>
<path d="M138.33 8.57522H114.718L111.632 3.36523H141.44L138.33 8.57522Z" fill="#338BFF"/>
<path d="M109.667 38.456H103.297L109.398 29.7134H115.765L109.667 38.456Z" fill="#FF6634"/>
<path style="mix-blend-mode:multiply" opacity="0.5" d="M135.331 3.36523H142.328L139.515 8.57522H132.479L135.331 3.36523Z" fill="url(#paint0_linear_2205_23958)"/>
<path style="mix-blend-mode:multiply" opacity="0.5" d="M130.994 10.9067H137.991L135.178 16.1167H128.142L130.994 10.9067Z" fill="url(#paint1_linear_2205_23958)"/>
<path d="M137.889 19.664H131.995L138.355 8.57961L141.367 3.36963H145.104C146.028 3.36963 146.603 4.40436 146.133 5.22489L137.889 19.6676V19.664Z" fill="#FF6634"/>
<defs>
<linearGradient id="paint0_linear_2205_23958" x1="133.887" y1="5.08253" x2="140.358" y2="6.72639" gradientUnits="userSpaceOnUse">
<stop stop-color="white" stop-opacity="0"/>
<stop offset="1" stop-color="#2D0F08"/>
</linearGradient>
<linearGradient id="paint1_linear_2205_23958" x1="129.55" y1="12.6204" x2="136.021" y2="14.2679" gradientUnits="userSpaceOnUse">
<stop stop-color="white" stop-opacity="0"/>
<stop offset="1" stop-color="#2D0F08"/>
</linearGradient>
</defs>
</svg>
