<svg width="105" height="86" viewBox="0 0 105 86" fill="none" xmlns="http://www.w3.org/2000/svg">
<path d="M19.0672 17.2021L0.634766 48.6277L28.8256 51.6499H76.1737L104.365 48.6277L85.9321 17.2021H19.0672Z" fill="#B0B0B0"/>
<path d="M76.1736 52.2914H28.8255C28.8034 52.2914 28.7813 52.2898 28.7584 52.2881L0.567553 49.266C0.352975 49.2428 0.163785 49.111 0.0671433 48.9154C-0.0294988 48.7197 -0.0213088 48.4877 0.0884373 48.3003L18.5217 16.8747C18.6363 16.6799 18.8436 16.5605 19.0671 16.5605H85.932C86.1556 16.5605 86.3628 16.6799 86.4775 16.8747L104.911 48.3003C105.021 48.4885 105.029 48.7206 104.932 48.9154C104.835 49.111 104.647 49.2428 104.432 49.266L76.2408 52.2881C76.2187 52.2906 76.1957 52.2914 76.1736 52.2914ZM28.8591 51.0075H76.14L103.314 48.0948L85.5708 17.8437H19.4283L1.68467 48.0948L28.8591 51.0075Z" fill="#E3E3E3"/>
<path d="M81.181 41.375H23.7985C21.1482 41.375 19 39.2008 19 36.5185V5.99884C19 3.31656 21.1482 1.14239 23.7985 1.14239H81.181C83.8313 1.14239 85.9795 3.31656 85.9795 5.99884V36.5193C85.9795 39.2008 83.8313 41.375 81.181 41.375Z" fill="white"/>
<path d="M81.2105 42.0174H78.4546C78.1041 42.0174 77.8207 41.7297 77.8207 41.375C77.8207 41.0202 78.1049 40.7326 78.4546 40.7326H81.2105C81.5611 40.7326 81.8453 41.0202 81.8453 41.375C81.8453 41.7297 81.5611 42.0174 81.2105 42.0174ZM74.3506 42.0174H71.6143C71.2638 42.0174 70.9796 41.7297 70.9796 41.375C70.9796 41.0202 71.2638 40.7326 71.6143 40.7326H74.3506C74.7011 40.7326 74.9845 41.0202 74.9845 41.375C74.9845 41.7297 74.7011 42.0174 74.3506 42.0174ZM67.5095 42.0174H64.7732C64.4227 42.0174 64.1393 41.7297 64.1393 41.375C64.1393 41.0202 64.4235 40.7326 64.7732 40.7326H67.5095C67.86 40.7326 68.1434 41.0202 68.1434 41.375C68.1442 41.7297 67.86 42.0174 67.5095 42.0174ZM60.6692 42.0174H57.9329C57.5824 42.0174 57.299 41.7297 57.299 41.375C57.299 41.0202 57.5832 40.7326 57.9329 40.7326H60.6692C61.0197 40.7326 61.3031 41.0202 61.3031 41.375C61.3039 41.7297 61.0197 42.0174 60.6692 42.0174ZM53.8289 42.0174H51.0926C50.7421 42.0174 50.4587 41.7297 50.4587 41.375C50.4587 41.0202 50.7429 40.7326 51.0926 40.7326H53.8289C54.1794 40.7326 54.4628 41.0202 54.4628 41.375C54.4628 41.7297 54.1786 42.0174 53.8289 42.0174ZM46.9878 42.0174H44.2515C43.901 42.0174 43.6176 41.7297 43.6176 41.375C43.6176 41.0202 43.9018 40.7326 44.2515 40.7326H46.9878C47.3383 40.7326 47.6217 41.0202 47.6217 41.375C47.6225 41.7297 47.3383 42.0174 46.9878 42.0174ZM40.1475 42.0174H37.4112C37.0607 42.0174 36.7773 41.7297 36.7773 41.375C36.7773 41.0202 37.0615 40.7326 37.4112 40.7326H40.1475C40.498 40.7326 40.7814 41.0202 40.7814 41.375C40.7814 41.7297 40.4972 42.0174 40.1475 42.0174ZM33.3064 42.0174H30.5701C30.2195 42.0174 29.9362 41.7297 29.9362 41.375C29.9362 41.0202 30.2204 40.7326 30.5701 40.7326H33.3064C33.6569 40.7326 33.9411 41.0202 33.9411 41.375C33.9411 41.7297 33.6569 42.0174 33.3064 42.0174ZM26.4661 42.0174H23.8084C23.7789 42.0174 23.7494 42.0174 23.7191 42.0165C23.3686 42.0107 23.0893 41.719 23.0951 41.3642C23.1008 41.0094 23.3883 40.7259 23.7388 40.7326C23.7617 40.7326 23.7847 40.7334 23.8076 40.7334H26.4644C26.815 40.7334 27.0983 41.021 27.0983 41.3758C27.1 41.7297 26.8166 42.0174 26.4661 42.0174ZM84.8248 40.3322C84.6782 40.3322 84.5308 40.2808 84.4104 40.1764C84.145 39.9451 84.1155 39.539 84.3448 39.2712C84.8674 38.6587 85.2023 37.9127 85.3145 37.1145C85.3637 36.7639 85.6855 36.5193 86.0312 36.5691C86.3784 36.6188 86.6192 36.9437 86.5701 37.2943C86.4243 38.3371 85.9869 39.3102 85.3047 40.1101C85.1794 40.2568 85.0025 40.3322 84.8248 40.3322ZM20.1368 40.2866C19.9558 40.2866 19.7765 40.2087 19.6512 40.0579C18.9788 39.2497 18.5537 38.2708 18.4202 37.2264C18.3752 36.8749 18.6209 36.5533 18.9681 36.5077C19.3154 36.4621 19.6331 36.7108 19.6782 37.0623C19.7797 37.8621 20.1057 38.6115 20.6209 39.2306C20.8469 39.5017 20.8125 39.907 20.5439 40.1349C20.4259 40.2369 20.281 40.2866 20.1368 40.2866ZM85.9894 33.6953C85.6389 33.6953 85.3555 33.4077 85.3555 33.0538V30.2844C85.3555 29.9297 85.6397 29.6429 85.9894 29.6429C86.3391 29.6429 86.6233 29.9305 86.6233 30.2844V33.0538C86.6241 33.4077 86.3399 33.6953 85.9894 33.6953ZM19.0099 33.6348C18.6594 33.6348 18.376 33.3472 18.376 32.9932V30.2239C18.376 29.8692 18.6602 29.5815 19.0099 29.5815C19.3604 29.5815 19.6446 29.8692 19.6446 30.2239V32.9932C19.6446 33.348 19.3604 33.6348 19.0099 33.6348ZM85.9894 26.7716C85.6389 26.7716 85.3555 26.484 85.3555 26.1301V23.3607C85.3555 23.006 85.6397 22.7192 85.9894 22.7192C86.3391 22.7192 86.6233 23.0068 86.6233 23.3607V26.1301C86.6241 26.4848 86.3399 26.7716 85.9894 26.7716ZM19.0099 26.7119C18.6594 26.7119 18.376 26.4243 18.376 26.0695V23.3002C18.376 22.9455 18.6602 22.6587 19.0099 22.6587C19.3604 22.6587 19.6446 22.9463 19.6446 23.3002V26.0695C19.6446 26.4243 19.3604 26.7119 19.0099 26.7119ZM85.9894 19.8487C85.6389 19.8487 85.3555 19.5611 85.3555 19.2072V16.4379C85.3555 16.0831 85.6397 15.7963 85.9894 15.7963C86.3391 15.7963 86.6233 16.0839 86.6233 16.4379V19.2072C86.6241 19.5611 86.3399 19.8487 85.9894 19.8487ZM19.0099 19.7882C18.6594 19.7882 18.376 19.5006 18.376 19.1458V16.3765C18.376 16.0218 18.6602 15.7341 19.0099 15.7341C19.3604 15.7341 19.6446 16.0218 19.6446 16.3765V19.1458C19.6446 19.5014 19.3604 19.7882 19.0099 19.7882ZM85.9894 12.925C85.6389 12.925 85.3555 12.6374 85.3555 12.2835V9.51416C85.3555 9.1594 85.6397 8.87177 85.9894 8.87177C86.3391 8.87177 86.6233 9.1594 86.6233 9.51416V12.2835C86.6241 12.6382 86.3399 12.925 85.9894 12.925ZM19.0099 12.8654C18.6594 12.8654 18.376 12.5777 18.376 12.2238V9.45448C18.376 9.09972 18.6602 8.81292 19.0099 8.81292C19.3604 8.81292 19.6446 9.10054 19.6446 9.45448V12.2238C19.6446 12.5777 19.3604 12.8654 19.0099 12.8654ZM85.9485 6.00465C85.6348 6.00465 85.3621 5.76924 85.3203 5.44598C85.2171 4.64693 84.8895 3.89761 84.3735 3.28009C84.1475 3.00904 84.181 2.60455 84.448 2.37577C84.7159 2.147 85.1155 2.18099 85.3416 2.4512C86.0156 3.25771 86.4431 4.2358 86.5783 5.2802C86.6241 5.63165 86.3792 5.95408 86.032 5.99967C86.0033 6.00216 85.9755 6.00465 85.9485 6.00465ZM19.0598 5.94497C19.0295 5.94497 18.9992 5.94248 18.9689 5.93834C18.6225 5.88777 18.3817 5.56285 18.4308 5.2114C18.5783 4.16949 19.0181 3.19637 19.7019 2.39815C19.9313 2.13042 20.3318 2.10141 20.5971 2.3335C20.8616 2.56559 20.8903 2.97092 20.661 3.23865C20.1368 3.85037 19.8002 4.59554 19.6872 5.39293C19.6413 5.71371 19.3702 5.94497 19.0598 5.94497ZM81.2605 1.78478C81.2572 1.78478 81.2548 1.78478 81.2515 1.78478C81.2318 1.78478 81.2114 1.78395 81.1909 1.78395H78.5242C78.1737 1.78395 77.8903 1.49632 77.8903 1.14239C77.8903 0.788453 78.1737 0.5 78.5242 0.5H81.1909C81.2171 0.5 81.2433 0.5 81.2695 0.500829C81.62 0.505802 81.8993 0.797571 81.8944 1.15151C81.8895 1.50295 81.6069 1.78478 81.2605 1.78478ZM23.7986 1.78395C23.448 1.78395 23.1647 1.49632 23.1647 1.14156C23.1647 0.786795 23.4489 0.5 23.7986 0.5V1.14156L23.8019 0.5H26.5349C26.8854 0.5 27.1696 0.787624 27.1696 1.14156C27.1696 1.49549 26.8854 1.78312 26.5349 1.78312L23.7986 1.78395ZM74.4194 1.78395H71.6831C71.3326 1.78395 71.0492 1.49632 71.0492 1.14239C71.0492 0.788453 71.3334 0.5 71.6839 0.5H74.4202C74.7707 0.5 75.0541 0.787624 75.0541 1.14156C75.0541 1.49549 74.7699 1.78395 74.4194 1.78395ZM67.5791 1.78395H64.8428C64.4923 1.78395 64.2081 1.49632 64.2081 1.14239C64.2081 0.788453 64.4923 0.5 64.8428 0.5H67.5791C67.9296 0.5 68.213 0.787624 68.213 1.14156C68.213 1.49549 67.9296 1.78395 67.5791 1.78395ZM60.7388 1.78395H58.0025C57.652 1.78395 57.3686 1.49632 57.3686 1.14239C57.3686 0.788453 57.652 0.5 58.0025 0.5H60.7388C61.0893 0.5 61.3727 0.787624 61.3727 1.14156C61.3727 1.49549 61.0885 1.78395 60.7388 1.78395ZM53.8977 1.78395H51.1614C50.8109 1.78395 50.5275 1.49632 50.5275 1.14239C50.5275 0.788453 50.8109 0.5 51.1614 0.5H53.8977C54.2482 0.5 54.5316 0.787624 54.5316 1.14156C54.5316 1.49549 54.2482 1.78395 53.8977 1.78395ZM47.0574 1.78395H44.3211C43.9706 1.78395 43.6872 1.49632 43.6872 1.14239C43.6872 0.788453 43.9706 0.5 44.3211 0.5H47.0574C47.4079 0.5 47.6913 0.787624 47.6913 1.14156C47.6913 1.49549 47.4071 1.78395 47.0574 1.78395ZM40.2163 1.78395H37.48C37.1295 1.78395 36.8461 1.49632 36.8461 1.14239C36.8461 0.788453 37.1303 0.5 37.48 0.5H40.2163C40.5668 0.5 40.851 0.787624 40.851 1.14156C40.851 1.49549 40.5668 1.78395 40.2163 1.78395ZM33.376 1.78395H30.6397C30.2892 1.78395 30.005 1.49632 30.005 1.14239C30.005 0.788453 30.2892 0.5 30.6397 0.5H33.376C33.7265 0.5 34.0099 0.787624 34.0099 1.14156C34.0099 1.49549 33.7265 1.78395 33.376 1.78395Z" fill="#E3E3E3"/>
<path d="M87.9418 51.6499H17.0581C15.108 51.6499 13.5273 50.0501 13.5273 48.0765V36.5069C13.5273 34.5333 15.108 32.9336 17.0581 32.9336H87.9418C89.8918 32.9336 91.4725 34.5333 91.4725 36.5069V48.0765C91.4716 50.0501 89.891 51.6499 87.9418 51.6499Z" fill="white"/>
<path d="M87.9419 52.2914H17.0582C14.7617 52.2914 12.8936 50.4007 12.8936 48.0765V36.5069C12.8936 34.1827 14.7617 32.292 17.0582 32.292H87.9419C90.2383 32.292 92.1065 34.1827 92.1065 36.5069V48.0765C92.1065 50.4007 90.2383 52.2914 87.9419 52.2914ZM17.0582 33.576C15.4611 33.576 14.1622 34.8906 14.1622 36.5069V48.0765C14.1622 49.6929 15.4611 51.0075 17.0582 51.0075H87.9419C89.5389 51.0075 90.8379 49.6929 90.8379 48.0765V36.5069C90.8379 34.8906 89.5389 33.576 87.9419 33.576H17.0582Z" fill="#E3E3E3"/>
<path d="M92.2694 59.5003H12.7305C10.543 59.5003 8.76904 57.7049 8.76904 55.4909V42.5089C8.76904 40.2949 10.543 38.4996 12.7305 38.4996H92.2694C94.457 38.4996 96.231 40.2949 96.231 42.5089V55.4909C96.231 57.7057 94.4578 59.5003 92.2694 59.5003Z" fill="white"/>
<path d="M92.2694 60.1427H12.7305C10.1965 60.1427 8.13428 58.0563 8.13428 55.4909V42.5089C8.13428 39.9443 10.1957 37.8572 12.7305 37.8572H92.2694C94.8034 37.8572 96.8656 39.9435 96.8656 42.5089V55.4909C96.8656 58.0555 94.8034 60.1427 92.2694 60.1427ZM12.7305 39.1419C10.8959 39.1419 9.40291 40.6522 9.40291 42.5097V55.4918C9.40291 57.3485 10.8959 58.8595 12.7305 58.8595H92.2694C94.104 58.8595 95.597 57.3493 95.597 55.4918V42.5089C95.597 40.6522 94.104 39.1411 92.2694 39.1411H12.7305V39.1419Z" fill="#E3E3E3"/>
<path d="M104.365 48.6277V80.501C104.365 82.9064 102.438 84.8576 100.061 84.8576H4.93943C2.56106 84.8576 0.634766 82.9064 0.634766 80.501V48.6277C0.634766 46.2215 2.56187 44.2711 4.93943 44.2711H25.181C27.1941 44.2711 28.8264 45.9231 28.8264 47.9605C28.8264 49.9979 30.4587 51.6499 32.4718 51.6499H72.5291C74.5422 51.6499 76.1745 49.9979 76.1745 47.9605C76.1745 45.9231 77.8068 44.2711 79.8199 44.2711H100.061C102.438 44.2711 104.365 46.2215 104.365 48.6277Z" fill="#D6D6D6"/>
<path d="M100.061 85.5H4.93939C2.2154 85.5 0 83.2579 0 80.5018V48.6277C0 45.8717 2.2154 43.6287 4.93939 43.6287H25.181C27.5405 43.6287 29.4603 45.5716 29.4603 47.9597C29.4603 49.6398 30.8108 51.0066 32.4709 51.0066H72.5283C74.1884 51.0066 75.5389 49.6398 75.5389 47.9597C75.5389 45.5716 77.4586 43.6287 79.8182 43.6287H100.06C102.783 43.6287 104.999 45.8709 104.999 48.6277V80.501C105 83.2579 102.784 85.5 100.061 85.5ZM4.93939 44.9135C2.91564 44.9135 1.26863 46.5804 1.26863 48.6286V80.5018C1.26863 82.55 2.91482 84.2169 4.93939 84.2169H100.061C102.084 84.2169 103.731 82.55 103.731 80.5018V48.6277C103.731 46.5796 102.085 44.9127 100.061 44.9127H79.819C78.1589 44.9127 76.8083 46.2795 76.8083 47.9597C76.8083 50.3477 74.8886 52.2906 72.5291 52.2906H32.4717C30.1122 52.2906 28.1925 50.3477 28.1925 47.9597C28.1925 46.2795 26.8419 44.9127 25.1818 44.9127H4.93939V44.9135Z" fill="#E3E3E3"/>
<path d="M57.9337 23.8108C57.6454 23.8108 57.3563 23.6998 57.1359 23.4768L46.3317 12.5413C45.8911 12.0953 45.8911 11.3734 46.3317 10.9274C46.7723 10.4815 47.4857 10.4815 47.9263 10.9274L58.7305 21.8621C59.1712 22.308 59.1712 23.03 58.7305 23.476C58.5102 23.6989 58.2219 23.8108 57.9337 23.8108Z" fill="#D6D6D6"/>
<path d="M47.1282 23.8108C46.8399 23.8108 46.5508 23.6998 46.3305 23.4768C45.8898 23.0308 45.8898 22.3089 46.3305 21.8629L57.1355 10.9274C57.5762 10.4815 58.2895 10.4815 58.7301 10.9274C59.1708 11.3734 59.1708 12.0953 58.7301 12.5413L47.9259 23.476C47.7056 23.6989 47.4173 23.8108 47.1282 23.8108Z" fill="#D6D6D6"/>
</svg>
